# xmcd CD database file
#
# Track frame offsets:
#	150
#	15113
#	31806
#	39055
#	50774
#	62966
#	79395
#	94854
#	109374
#	121774
#	132999
#	146368
#	161019
#	177773
#	197625
#	220908
#	233095
#	249836
#	278510
#	292293
#
# Disc length: 4207 seconds
#
# Revision: 0
# Processed by: cddbd v1.5.2PL0 Copyright (c) Steve Scherf et al.
# Submitted via: CDex 1.70beta2
#
DISCID=14106d14
DTITLE=Duke Ellington and his Famous Orchestra - plays Standards
DYEAR=2006
DGENRE=Jazz
TTITLE0=Blue Skies
TTITLE1=Ain't Misbehavin' 
TTITLE2=Somebody Loves Me
TTITLE3=Tea for Two
TTITLE4=St. Louis Blues
TTITLE5=Royal Garden Blues
TTITLE6=Singin' in the Rain
TTITLE7=My Old Flame
TTITLE8=Three Little Words
TTITLE9=Stardust
TTITLE10=Cocktails for Two
TTITLE11=Liza
TTITLE12=Flamingo
TTITLE13=Honeysuckle Rose
TTITLE14=Stampin' at the Savoy
TTITLE15=Smile
TTITLE16=Tenderly
TTITLE17=Body and Soul
TTITLE18=Lullaby of Birdland
TTITLE19=How High the Moon
EXTD=YEAR: 2006
EXTT0=
EXTT1=
EXTT2=
EXTT3=
EXTT4=
EXTT5=
EXTT6=
EXTT7=
EXTT8=
EXTT9=
EXTT10=
EXTT11=
EXTT12=
EXTT13=
EXTT14=
EXTT15=
EXTT16=
EXTT17=
EXTT18=
EXTT19=
PLAYORDER=
